<svg width="74" height="74" viewBox="0 0 74 74" fill="none" xmlns="http://www.w3.org/2000/svg">
<path d="M39.5146 49.3095C38.2569 48.2056 36.2111 48.372 35.1049 49.627L23.4367 62.7519V10.2976C23.4367 8.57383 22.0123 7.15247 20.2848 7.15247C18.5572 7.15247 17.1328 8.57383 17.1328 10.2976V62.7519L5.46458 49.627C4.20684 48.372 2.31264 48.2056 1.0549 49.3095C-0.202849 50.5645 -0.369538 52.4546 0.736671 53.7096L17.9208 72.898C19.2089 74.4857 21.4819 74.2438 22.4972 72.898L39.8328 53.7096C40.939 52.4697 40.7875 50.4133 39.5146 49.3095Z" fill="white"/>
<path d="M73.2625 20.3681L56.2299 1.17967C54.7146 -0.347535 52.8204 -0.43826 51.502 1.17967L34.1664 20.3681C33.0602 21.6231 33.2268 23.6644 34.4846 24.7682C36.4242 26.3106 38.379 25.2521 38.8943 24.4507L50.5625 11.3258V63.6289C50.5625 65.3527 51.9869 66.774 53.7144 66.774C55.4419 66.774 56.8664 65.519 56.8664 63.7801V11.3409L68.5346 24.4658C69.7924 25.7209 71.6866 25.8872 72.9443 24.7834C74.202 23.5132 74.3687 21.6231 73.2625 20.3681Z" fill="white"/>
</svg>
