<svg width="175" height="102" viewBox="0 0 175 102" fill="none" xmlns="http://www.w3.org/2000/svg">
<path fill-rule="evenodd" clip-rule="evenodd" d="M46.2268 1C42.0144 1 38.541 4.47339 38.541 8.68581V79.3784C38.541 83.8653 42.1622 87.4865 46.6491 87.4865H57.7133C59.0013 95.1512 65.6631 101 73.6761 101C81.6892 101 88.351 95.1512 89.639 87.4865H114.639C116.634 87.4865 118.419 86.6419 119.791 85.375C121.195 86.6102 122.99 87.4654 125.028 87.4865H127.984C129.272 95.1512 135.933 101 143.946 101C151.947 101 158.64 95.1323 159.936 87.4865C160.163 87.4865 159.936 87.4865 160.163 87.4865C160.163 86.8108 160.163 85.394 160.163 84.7838C160.163 84.2745 160.163 82.7568 160.163 82.0811C159.936 82.0811 160.163 82.0811 159.936 82.0811C158.64 74.4353 151.947 68.5676 143.946 68.5676C135.933 68.5676 129.272 74.4164 127.984 82.0811H125.028C124.521 82.0811 123.75 81.7327 123.169 81.152C122.589 80.5714 122.325 79.8746 122.325 79.3784V28.027C122.325 26.6757 122.325 25.3243 122.325 25.358C122.325 25.3243 122.663 25.3243 123.676 25.3243H146.649C148.771 25.3243 151.759 27.5942 153.828 30.0541C153.849 30.0857 153.892 30.1068 153.913 30.1385L154.335 30.7297H141.244C136.936 30.7297 133.136 34.2137 133.136 38.8378V49.6487C133.136 51.8974 134.149 53.8716 135.585 55.3074C137.021 56.7432 138.995 57.7568 141.244 57.7568H168.271V79.3784C168.271 80.3919 166.582 82.0811 165.568 82.0811H160.163V83.4324V84.7838V86.1351V87.4865H165.568C170.055 87.4865 173.676 83.8653 173.676 79.3784V53.3649C173.676 47.1782 169.369 41.7095 169.369 41.7095H169.284L158.136 26.8446V26.7601L158.051 26.6757C155.56 23.6668 151.822 19.9189 146.649 19.9189H125.028C124.067 19.9189 123.676 19.9189 122.325 19.9189V8.85473C122.325 4.70566 119.052 1 114.723 1H46.2268ZM114.217 6.40541H46.6491C45.3611 6.40541 43.9464 7.84122 43.9464 9.10811V79.3784C43.9464 80.3813 45.6356 82.0811 46.6491 82.0811H57.7133C59.0013 74.4164 65.6631 68.5676 73.6761 68.5676C81.6892 68.5676 88.351 74.4164 89.639 82.0811H114.217C115.494 82.0811 116.919 80.6453 116.919 79.3784V9.10811C116.919 7.77787 115.378 6.40541 114.217 6.40541ZM158.389 36.1351H141.244C140.146 36.1351 138.541 37.4759 138.541 38.8378V49.6487C138.541 50.1026 138.879 50.8311 139.47 51.4223C140.061 52.0135 140.79 52.3514 141.244 52.3514H167.933C167.426 49.1102 164.977 44.9189 164.977 44.9189L158.389 36.1351ZM84.487 84.7838C84.487 78.7766 79.6833 73.973 73.6761 73.973C67.669 73.973 62.8653 78.7766 62.8653 84.7838C62.8653 90.791 67.669 95.5946 73.6761 95.5946C79.6833 95.5946 84.487 90.791 84.487 84.7838ZM154.757 84.7838C154.757 78.7766 149.954 73.973 143.946 73.973C137.939 73.973 133.136 78.7766 133.136 84.7838C133.136 90.791 137.939 95.5946 143.946 95.5946C149.954 95.5946 154.757 90.791 154.757 84.7838Z" fill="white"/>
<path d="M28 65H10.2105M28 52.1429C17.8464 52.1429 12.1536 52.1429 2 52.1429M28 38H10.2105" stroke="white" stroke-width="4" stroke-linecap="round" stroke-linejoin="round"/>
</svg>
