<svg width="106" height="106" viewBox="0 0 106 106" fill="none" xmlns="http://www.w3.org/2000/svg">
<path d="M25.5 80.5H10.5V95.5" stroke="white" stroke-width="5" stroke-linecap="round" stroke-linejoin="round"/>
<path d="M95.498 95.5H80.498V80.5" stroke="white" stroke-width="5" stroke-linecap="round" stroke-linejoin="round"/>
<path d="M80.498 25.5H95.498V10.5" stroke="white" stroke-width="5" stroke-linecap="round" stroke-linejoin="round"/>
<path d="M10.5 10.5H25.5V25.5" stroke="white" stroke-width="5" stroke-linecap="round" stroke-linejoin="round"/>
<path d="M25.5 11.2351C11.9445 20.1787 3 35.5447 3 53C3 55.549 3.19075 58.0535 3.55875 60.5" stroke="white" stroke-width="5" stroke-linecap="round" stroke-linejoin="round"/>
<path d="M60.4983 102.441C58.0518 102.809 55.5473 103 52.9983 103C35.543 103 20.177 94.0555 11.2334 80.5" stroke="white" stroke-width="5" stroke-linecap="round" stroke-linejoin="round"/>
<path d="M102.439 45.4999C102.807 47.9464 102.998 50.4509 102.998 52.9999C102.998 70.4552 94.0536 85.8212 80.498 94.765" stroke="white" stroke-width="5" stroke-linecap="round" stroke-linejoin="round"/>
<path d="M45.499 3.55875C47.9455 3.19075 50.45 3 52.999 3C70.4543 3 85.8203 11.9445 94.764 25.5" stroke="white" stroke-width="5" stroke-linecap="round" stroke-linejoin="round"/>
</svg>
