<svg width="79" height="74" viewBox="0 0 79 74" fill="none" xmlns="http://www.w3.org/2000/svg">
<path d="M51.3275 20.7476C52.9994 19.9946 54.5147 19.3059 56.0356 18.6302C56.7998 18.2904 57.5581 17.9246 58.3484 17.6578C60.4257 16.9574 61.4147 17.1961 62.6867 19.0215C63.8963 20.7359 64.9809 22.5352 65.933 24.4055C68.5091 29.5486 70.9923 34.7388 73.4685 39.9322C74.0559 41.1643 74.4661 42.4817 74.9654 43.781C75.5987 43.7178 76.2395 43.6023 76.8798 43.6023C77.2718 43.5844 77.66 43.6855 77.9943 43.8919C78.3281 44.0987 78.5913 44.4017 78.751 44.7611C78.9534 45.1009 79.0362 45.499 78.9854 45.8918C78.9347 46.2843 78.7532 46.6483 78.4707 46.9249C77.683 47.646 76.7906 48.2428 75.8235 48.6946C69.5932 51.6202 63.3318 54.478 57.0924 57.3849C54.9777 58.3701 52.9156 59.4703 50.7948 60.441C50.4913 60.5453 50.2287 60.7432 50.0458 61.0075C49.8632 61.2717 49.7692 61.5872 49.7787 61.9081C49.6939 63.2244 49.4825 64.5295 49.1478 65.8051C48.5281 68.0199 47.2376 69.9882 45.4546 71.4377C43.6713 72.8871 41.4832 73.7472 39.1913 73.8985C37.4055 74.0884 35.6016 74.0114 33.8383 73.6712C26.4675 72.0062 23.6242 64.4781 27.915 58.2551C28.3563 57.6154 28.8536 57.0142 29.4463 56.236C23.082 40.6233 16.1044 25.1933 9.07554 9.576C8.19581 9.92002 7.43873 10.223 6.67605 10.5123C5.50084 10.9581 4.33686 11.4432 3.13816 11.8139C2.57844 12.0275 1.96688 12.0641 1.38569 11.9192C0.804063 11.6823 0.334022 11.2329 0.0706467 10.6621C-0.183812 10 0.280941 9.38003 0.955291 9.09741C1.72638 8.7734 2.56301 8.59155 3.31377 8.22929C5.03892 7.39657 6.7553 6.53829 8.42645 5.6031C10.2606 4.57699 11.5578 4.83093 12.6324 6.69533C13.3786 7.99069 13.9712 9.37436 14.6386 10.7157C14.742 10.9232 14.8776 11.1146 15.0683 11.4288C15.6848 11.1479 16.2691 10.8973 16.8436 10.6242C23.8745 7.27837 30.8953 3.91074 37.939 0.592657C40.2438 -0.493127 41.4345 -0.134355 42.7411 2.06249C43.6478 3.61355 44.4628 5.21672 45.182 6.86348C46.9614 10.858 48.668 14.8852 50.4131 18.8955C50.6497 19.4393 50.9385 19.9623 51.3275 20.7476ZM59.9846 21.8257C48.4885 26.7084 37.6386 31.9945 26.7363 37.3014L33.6158 53.2681C38.8383 52.0351 43.7158 52.7926 48.008 56.4211L70.6131 45.8364L59.9846 21.8257ZM46.8195 22.7654C44.4406 16.5663 41.9532 10.5139 39.2334 4.51107L16.6764 14.9406C19.8189 21.1689 21.9173 27.7187 25.0448 33.6753L46.8195 22.7654ZM36.5524 69.5946C41.2841 69.6074 44.0909 67.5263 44.9215 63.387C45.4824 60.5871 44.632 58.9071 42.0121 57.8085C40.8555 57.3234 39.6466 56.9656 38.4686 56.5313C35.1827 55.3161 34.3602 55.5086 32.1311 58.1845C31.5484 58.868 31.0467 59.6168 30.6359 60.4159C29.93 61.8343 29.5844 63.3426 29.9629 64.9445C30.6678 67.9349 33.0007 69.5844 36.5507 69.594L36.5524 69.5946Z" fill="white"/>
<path d="M66.9721 38.0719C65.7615 37.7303 64.7469 37.4591 64.3319 36.3344C64.1132 35.8498 64.0838 35.3006 64.2498 34.7953C64.4162 34.2902 64.7659 33.866 65.2293 33.6068C66.5578 32.8177 67.9672 32.1753 69.434 31.6907C70.007 31.5048 70.628 31.533 71.1819 31.7703C71.7358 32.0077 72.1857 32.4381 72.4472 32.9817C72.6889 33.4971 72.7251 34.0855 72.5479 34.6267C72.3714 35.1678 71.9953 35.621 71.4961 35.8938C70.088 36.7805 68.4889 37.3614 66.9721 38.0719Z" fill="white"/>
<path d="M41.7469 15.2894C40.5832 14.9236 39.5458 14.7821 39.0828 13.6443C38.8619 13.1656 38.8244 12.6223 38.9773 12.1177C39.1303 11.6131 39.4631 11.1823 39.9123 10.9074C41.1898 10.0754 42.5845 9.44002 44.05 9.02233C44.599 8.88927 45.1774 8.96362 45.675 9.23098C46.1725 9.49833 46.5542 9.93997 46.747 10.4715C47.0016 10.9772 47.0531 11.5614 46.8909 12.104C46.7288 12.6465 46.3657 13.1064 45.876 13.3893C44.5887 14.1703 43.1311 14.6686 41.7469 15.2894Z" fill="white"/>
</svg>
