<svg width="106" height="106" viewBox="0 0 106 106" fill="none" xmlns="http://www.w3.org/2000/svg">
<path d="M70.8885 9.90985L80.8885 15.1576C91.647 20.8033 97.026 23.6261 100.013 28.6987C103 33.7713 103 40.0833 103 52.7075V53.2925C103 65.9165 103 72.229 100.013 77.3015C97.026 82.374 91.647 85.1965 80.8885 90.8425L70.8885 96.09C62.1105 100.697 57.7215 103 53 103C48.2785 103 43.8895 100.697 35.1114 96.09L25.1114 90.8425C14.3531 85.1965 8.97395 82.374 5.987 77.3015C3 72.229 3 65.9165 3 53.2925V52.7075C3 40.0833 3 33.7713 5.987 28.6987C8.97395 23.6261 14.3531 20.8033 25.1114 15.1576L35.1114 9.90985C43.8895 5.3033 48.2785 3 53 3C57.7215 3 62.1105 5.3033 70.8885 9.90985Z" stroke="white" stroke-width="6" stroke-linecap="round"/>
<path d="M98 30.5L78 40.5M78 40.5C78 40.5 76.4765 41.2619 75.5 41.75C66.713 46.1435 53 53 53 53M78 40.5V58M78 40.5L30.5 15.5M53 53L8 30.5M53 53V100.5" stroke="white" stroke-width="6" stroke-linecap="round"/>
</svg>
