<svg width="74" height="60" viewBox="0 0 74 60" fill="none" xmlns="http://www.w3.org/2000/svg">
<path d="M37.2505 16.6637C29.6009 16.6637 23.3967 22.6792 23.3967 30.0962C23.3967 37.5133 29.6009 43.5288 37.2505 43.5288C44.9001 43.5288 51.1043 37.5155 51.1043 30.0962C51.1043 22.677 44.9024 16.6637 37.2505 16.6637ZM37.2505 39.0513C32.1569 39.0513 27.9085 34.9364 27.9085 29.9977C27.9085 25.059 32.0507 21.0427 37.1443 21.0427C42.2379 21.0427 46.3802 25.059 46.3802 29.9977C46.3802 34.9364 42.3441 39.0513 37.2505 39.0513ZM73.9215 29.4783C73.8938 29.3664 73.9076 29.2455 73.873 29.1358C73.8592 29.0888 73.8268 29.0619 73.8107 29.0216C73.7853 28.959 73.7922 28.8828 73.7576 28.8224C67.0408 13.9122 52.5682 5.33331 37.1443 5.33331C21.7204 5.33331 6.95691 13.8988 0.237823 28.809C0.210116 28.8716 0.214734 28.9366 0.189335 29.0082C0.173172 29.053 0.140847 29.0754 0.124684 29.1179C0.0900496 29.2298 0.103903 29.3485 0.0808138 29.4627C0.0392524 29.6642 0 29.8612 0 30.0649C0 30.2686 0.0392524 30.4612 0.0808138 30.6649C0.103903 30.7768 0.0877406 30.9 0.124684 31.0052C0.138538 31.0567 0.173172 31.0768 0.189335 31.1216C0.212425 31.182 0.207807 31.2582 0.237823 31.3208C6.95691 46.2265 21.5773 54.6666 37.0012 54.6666C52.425 54.6666 67.0431 46.2444 73.7599 31.3343C73.7945 31.2694 73.7876 31.2044 73.813 31.1328C73.8291 31.0947 73.8592 31.0656 73.873 31.0209C73.9076 30.9112 73.8984 30.7925 73.9215 30.6761C73.9631 30.4746 74 30.2798 74 30.0716C74 29.8746 73.9608 29.6798 73.9192 29.4761L73.9215 29.4783ZM37.0012 50.1891C23.9209 50.1891 11.0438 43.5042 4.71721 30.0627C10.9837 16.6682 24.0317 9.8086 37.1443 9.8086C50.2546 9.8086 63.0116 16.6749 69.2805 30.0761C63.0163 43.4684 50.1161 50.1891 37.0012 50.1891Z" fill="white"/>
</svg>
