<svg width="20" height="24" viewBox="0 0 20 24" fill="none" xmlns="http://www.w3.org/2000/svg">
<path d="M10 11.5C11.3807 11.5 12.5 10.3807 12.5 9C12.5 7.61929 11.3807 6.5 10 6.5C8.61929 6.5 7.5 7.61929 7.5 9C7.5 10.3807 8.61929 11.5 10 11.5Z" stroke="#6B85A8" stroke-width="2" stroke-linecap="round" stroke-linejoin="round"/>
<path d="M10 23C10 23 2 14.4444 2 8.33333C2 6.38841 2.84286 4.52315 4.34315 3.14788C5.84344 1.77262 7.87827 1 10 1C12.1217 1 14.1566 1.77262 15.6569 3.14788C17.1571 4.52315 18 6.38841 18 8.33333C18 14.4444 10 23 10 23Z" stroke="#6B85A8" stroke-width="2" stroke-linecap="round" stroke-linejoin="round"/>
</svg>
