<svg width="86" height="100" viewBox="0 0 86 100" fill="none" xmlns="http://www.w3.org/2000/svg">
<path d="M42.8576 50C48.5408 50 53.9912 47.7424 58.0099 43.7237C62.0285 39.7051 64.2861 34.2546 64.2861 28.5714C64.2861 22.8882 62.0285 17.4378 58.0099 13.4191C53.9912 9.4005 48.5408 7.14286 42.8576 7.14286C37.1744 7.14286 31.7239 9.4005 27.7053 13.4191C23.6866 17.4378 21.429 22.8882 21.429 28.5714C21.429 34.2546 23.6866 39.7051 27.7053 43.7237C31.7239 47.7424 37.1744 50 42.8576 50ZM42.8576 57.1429C35.2799 57.1429 28.0127 54.1327 22.6545 48.7745C17.2963 43.4163 14.2861 36.149 14.2861 28.5714C14.2861 20.9938 17.2963 13.7266 22.6545 8.36838C28.0127 3.0102 35.2799 0 42.8576 0C50.4352 0 57.7024 3.0102 63.0606 8.36838C68.4188 13.7266 71.429 20.9938 71.429 28.5714C71.429 36.149 68.4188 43.4163 63.0606 48.7745C57.7024 54.1327 50.4352 57.1429 42.8576 57.1429Z" fill="white"/>
<path d="M42.8576 50C43.8048 50 44.7132 50.3763 45.3829 51.046C46.0527 51.7158 46.429 52.6242 46.429 53.5714V82.1429C46.429 83.0901 46.0527 83.9985 45.3829 84.6682C44.7132 85.338 43.8048 85.7143 42.8576 85.7143C41.9104 85.7143 41.002 85.338 40.3322 84.6682C39.6624 83.9985 39.2861 83.0901 39.2861 82.1429V53.5714C39.2861 52.6242 39.6624 51.7158 40.3322 51.046C41.002 50.3763 41.9104 50 42.8576 50Z" fill="white"/>
<path d="M28.5714 65.3V72.55C15.8214 74.5928 7.14286 79.0071 7.14286 82.1428C7.14286 86.35 22.7571 92.8571 42.8571 92.8571C62.9571 92.8571 78.5714 86.35 78.5714 82.1428C78.5714 79 69.8929 74.5928 57.1429 72.55V65.3C73.7857 67.75 85.7143 74.3714 85.7143 82.1428C85.7143 92 66.5286 100 42.8571 100C19.1857 100 0 92 0 82.1428C0 74.3643 11.9286 67.75 28.5714 65.3Z" fill="white"/>
</svg>
