<svg width="55" height="55" viewBox="0 0 55 55" fill="none" xmlns="http://www.w3.org/2000/svg">
<rect width="55" height="55" rx="10" fill="#005BFE"/>
<mask id="mask0_2020_63" style="mask-type:alpha" maskUnits="userSpaceOnUse" x="0" y="0" width="55" height="55">
<rect width="55" height="55" rx="10" fill="#D9D9D9"/>
</mask>
<g mask="url(#mask0_2020_63)">
<path d="M26.2045 24.1385L23 55H70L35.2841 21L26.2045 24.1385Z" fill="#F81155"/>
<path d="M3.60084 37.9317C5.10032 37.324 6.02524 35.7643 5.81681 34.1948C5.74722 33.6588 5.5527 33.1469 5.24825 32.6989C4.9438 32.2509 4.53756 31.8785 4.06088 31.6107C3.58421 31.3429 3.04983 31.1866 2.49898 31.1541C1.94813 31.1215 1.39554 31.2135 0.883846 31.423C-0.616552 32.0322 -1.54147 33.5919 -1.33213 35.1598C-1.26254 35.6959 -1.06802 36.2077 -0.763568 36.6558C-0.459118 37.1038 -0.0528819 37.4761 0.423797 37.744C0.900476 38.0118 1.43485 38.168 1.9857 38.2006C2.53655 38.2331 3.08914 38.1411 3.60084 37.9317ZM1.20671 28.1507C2.74107 27.9042 4.30914 28.1803 5.64875 28.9331C6.98836 29.6858 8.0183 30.8694 8.56637 32.2861C10.0571 36.2121 7.51518 40.4986 3.27582 41.2058C1.74162 41.4521 0.173804 41.1757 -1.16555 40.4229C-2.5049 39.6701 -3.53463 38.4866 -4.0826 37.0701C-5.57334 33.1441 -3.03141 28.8576 1.20671 28.1507ZM10.6123 25.9011L20.1741 23.3391C20.5377 23.2416 20.8518 23.5926 20.7087 23.934L16.3777 34.2336L21.5612 32.8447C22.5061 32.5915 23.4745 33.232 23.5355 34.2414C23.5801 34.9818 23.0343 35.6409 22.3021 35.8371L11.9178 38.6196C11.5579 38.716 11.246 38.3683 11.3876 38.0312L15.7216 27.7231L11.4669 28.8631C10.7348 29.0593 9.93216 28.7602 9.60091 28.0979C9.14783 27.1936 9.66738 26.1543 10.6123 25.9011ZM52.1177 14.8161C53.0502 14.3486 54.114 14.8458 54.3627 15.7737L57.1156 26.0478C57.2118 26.4067 56.841 26.7197 56.4944 26.5743L46.5331 22.3914L47.8732 27.3925C48.1218 28.3204 47.4491 29.2829 46.4078 29.3443C45.6615 29.3889 45.0041 28.8748 44.815 28.1692L42.0718 17.9313C41.9756 17.5725 42.3464 17.2594 42.6929 17.4049L52.6555 21.5875L51.3271 16.6299C51.138 15.9242 51.4518 15.1512 52.1189 14.8157L52.1177 14.8161ZM30.5549 20.2519C35.6048 18.8988 40.4641 20.6582 41.4081 24.1816C42.3522 27.705 39.0238 31.6583 33.9738 33.0114C28.9239 34.3645 24.0647 32.6051 23.1206 29.0817C22.1766 25.5583 25.505 21.605 30.5549 20.2519ZM31.3527 23.2291C27.8636 24.164 25.7379 26.6593 26.1681 28.2651C26.5984 29.871 29.6871 30.9691 33.1761 30.0342C36.6651 29.0993 38.7912 26.6052 38.3606 24.9982C37.93 23.3911 34.8417 22.2942 31.3527 23.2291Z" fill="white"/>
</g>
</svg>
