<svg width="84" height="100" viewBox="0 0 84 100" fill="none" xmlns="http://www.w3.org/2000/svg">
<path d="M78.0807 80.6644L78.0807 80.6645C80.0189 84.1095 80.233 88.3363 79.1235 91.6239C78.0067 94.9334 75.9324 96.4999 73.7092 96.4999H73.6594H73.6092H73.5586H73.5077H73.4565H73.4049H73.353H73.3008H73.2482H73.1953H73.142H73.0885H73.0346H72.9804H72.9259H72.871H72.8159H72.7604H72.7046H72.6485H72.5921H72.5353H72.4783H72.421H72.3633H72.3054H72.2471H72.1886H72.1297H72.0706H72.0111H71.9514H71.8914H71.8311H71.7705H71.7096H71.6485H71.587H71.5253H71.4633H71.401H71.3385H71.2757H71.2126H71.1492H71.0856H71.0217H70.9575H70.8931H70.8284H70.7635H70.6983H70.6328H70.5671H70.5011H70.4349H70.3685H70.3018H70.2348H70.1676H70.1002H70.0325H69.9646H69.8964H69.828H69.7594H69.6905H69.6215H69.5521H69.4826H69.4128H69.3428H69.2726H69.2022H69.1316H69.0607H68.9896H68.9184H68.8469H68.7752H68.7032H68.6311H68.5588H68.4863H68.4136H68.3406H68.2675H68.1942H68.1207H68.047H67.9731H67.899H67.8247H67.7503H67.6757H67.6009H67.5259H67.4507H67.3753H67.2998H67.2241H67.1483H67.0722H66.996H66.9196H66.8431H66.7664H66.6896H66.6126H66.5354H66.4581H66.3806H66.3029H66.2252H66.1472H66.0692H65.9909H65.9126H65.8341H65.7554H65.6766H65.5977H65.5187H65.4395H65.3601H65.2807H65.2011H65.1214H65.0416H64.9616H64.8816H64.8014H64.7211H64.6407H64.5601H64.4795H64.3987H64.3178H64.2369H64.1558H64.0746H63.9933H63.9119H63.8305H63.7489H63.6672H63.5854H63.5036H63.4216H63.3396H63.2575H63.1753H63.093H63.0106H62.9281H62.8456H62.763H62.6803H62.5976H62.5148H62.4319H62.3489H62.2659H62.1828H62.0997H62.0164H61.9332H61.8499H61.7665H61.683H61.5996H61.516H61.4324H61.3488H61.2651H61.1814H61.0977H61.0139H60.93H60.8462H60.7623H60.6783H60.5944H60.5104H60.4263H60.3423H60.2582H60.1741H60.09H60.0059H59.9217H59.8375H59.7533H59.6692H59.5849H59.5007H59.4165H59.3323H59.2481H59.1638H59.0796H58.9954H58.9112H58.8269H58.7427H58.6585H58.5743H58.4902H58.406H58.3218H58.2377H58.1536H58.0695H57.9854H57.9014H57.8174H57.7334H57.6494H57.5655H57.4816H57.3977H57.3139H57.2301H57.1464H57.0627H56.979H56.8954H56.8118H56.7283H56.6449H56.5614H56.4781H56.3948H56.3115H56.2283H56.1452H56.0621H55.9791H55.8962H55.8133H55.7305H55.6478H55.5651H55.4825H55.4H55.3176H55.2353H55.153H55.0708H54.9887H54.9067H54.8248H54.7429H54.6612H54.5795H54.498H54.4165H54.3352H54.2539H54.1728H54.0917H54.0108H53.9299H53.8492H53.7686H53.6881H53.6077H53.5274H53.4473H53.3672H53.2873H53.2075H53.1279H53.0483H52.9689H52.8896H52.8105H52.7314H52.6526H52.5738H52.4952H52.4167H52.3384H52.2602H52.1822H52.1043H52.0266H51.949H51.8715H51.7943H51.7171H51.6402H51.5634H51.4867H51.4102H51.3339H51.2577H51.1818H51.1059H51.0303H50.9548H50.8795H50.8044H50.7295H50.6547H50.5801H50.5057H50.4315H50.3575H50.2836H50.21H50.1365H50.0633H49.9902H49.9173H49.8447H49.7722H49.6999H49.6279H49.556H49.4844H49.4129H49.3417H49.2707H49.1999H49.1293H49.059H48.9888H48.9189H48.8492H48.7797H48.7105H48.6414H48.5727H48.5041H48.4358H48.3677H48.2998H48.2322H48.1649H48.0977H48.0308H47.9642H47.8978H47.8317H47.7658H47.7001H47.6347H47.5696H47.5047H47.4401H47.3758H47.3117H47.2479H47.1843H47.121H47.058H46.9953H46.9328H46.8706H46.8087H46.747H46.6857H46.6246H46.5638H46.5033H46.4431H46.3831H46.3235H46.2641H46.2051H46.1463H46.0879H46.0297H45.9718H45.9143H45.857H45.8001H45.7434H45.6871H45.6311H45.5754H45.52H45.4649H45.4101H45.3557H45.3016H45.2478H45.1943H45.1412H45.0884H45.0359H44.9838H44.9319H44.8805H44.8293H44.7785H44.7281H44.678H44.6282H44.5788H44.5297H44.4809H44.4326H44.3845H44.3369H44.2896H44.2426H44.196H44.1498H44.1039H44.0584H44.0132H43.9685H43.9241H43.88H43.8364H43.7931H43.7502H43.7077H43.6655H43.6238H43.5824H43.5414H43.5008H43.4606H43.4208H43.3813H43.3423H43.3037H43.2654H43.2276H43.1901H43.1531H43.1165H43.0802H43.0444H43.009H42.974H42.9394H42.9053H42.8715H42.8382H42.8053H42.7728H42.7407H42.7091H42.6778H42.6471H42.6167H42.5868H42.5573H42.5283H42.4996H42.4715H42.4437H42.4164H42.3896H42.3632H42.3372H42.3117H42.2867H42.2621H42.238H42.2143H42.1911H42.1683H42.146H42.1241H42.1028H42.0819H42.0614H42.0414H42.0219H42.0029H41.9844H41.9663H41.9487H41.9316H41.915H41.8988H41.8832H41.868H41.8533H41.8392H41.8255H41.8123H41.7996H41.7873H41.7756H41.7644H41.7537H41.7435H41.7339H41.7247H41.716H41.7079H41.7002H41.6931H41.6865H41.6804H41.6748H41.6698H41.6652H41.6612H41.6578H41.6548H41.6524H41.6505H41.6492H41.6484C41.6482 96.4999 41.6481 96.4999 41.6481 99.9999C41.6481 96.4999 41.648 96.4999 41.6478 96.4999H41.647H41.6457H41.6438H41.6414H41.6385H41.635H41.631H41.6265H41.6214H41.6158H41.6097H41.6031H41.596H41.5884H41.5802H41.5715H41.5624H41.5527H41.5425H41.5318H41.5206H41.5089H41.4966H41.4839H41.4707H41.457H41.4429H41.4282H41.413H41.3974H41.3812H41.3646H41.3475H41.3299H41.3118H41.2933H41.2742H41.2547H41.2348H41.2143H41.1934H41.172H41.1502H41.1279H41.1051H41.0819H41.0582H41.0341H41.0095H40.9844H40.9589H40.9329H40.9065H40.8797H40.8524H40.8247H40.7965H40.7679H40.7388H40.7093H40.6794H40.6491H40.6183H40.5871H40.5554H40.5233H40.4908H40.4579H40.4246H40.3908H40.3567H40.3221H40.2871H40.2517H40.2159H40.1796H40.143H40.1059H40.0685H40.0307H39.9924H39.9538H39.9147H39.8753H39.8355H39.7952H39.7546H39.7136H39.6723H39.6305H39.5883H39.5458H39.5029H39.4596H39.416H39.3719H39.3275H39.2827H39.2376H39.1921H39.1462H39.1H39.0534H39.0064H38.9591H38.9114H38.8634H38.815H38.7663H38.7172H38.6678H38.618H38.5679H38.5174H38.4666H38.4154H38.364H38.3121H38.26H38.2075H38.1547H38.1015H38.0481H37.9943H37.9402H37.8857H37.831H37.7759H37.7205H37.6648H37.6087H37.5524H37.4958H37.4388H37.3815H37.324H37.2661H37.2079H37.1495H37.0907H37.0316H36.9723H36.9126H36.8527H36.7925H36.732H36.6712H36.6101H36.5487H36.4871H36.4251H36.3629H36.3004H36.2377H36.1747H36.1114H36.0478H35.984H35.9199H35.8555H35.7909H35.726H35.6609H35.5955H35.5299H35.464H35.3978H35.3314H35.2648H35.1979H35.1308H35.0634H34.9958H34.9279H34.8598H34.7915H34.7229H34.6541H34.5851H34.5158H34.4464H34.3767H34.3067H34.2366H34.1662H34.0956H34.0248H33.9538H33.8826H33.8111H33.7395H33.6676H33.5955H33.5233H33.4508H33.3781H33.3052H33.2322H33.1589H33.0854H33.0118H32.9379H32.8639H32.7897H32.7153H32.6407H32.5659H32.491H32.4158H32.3405H32.2651H32.1894H32.1136H32.0376H31.9614H31.8851H31.8086H31.732H31.6551H31.5782H31.501H31.4237H31.3463H31.2687H31.191H31.1131H31.035H30.9568H30.8785H30.8H30.7214H30.6427H30.5638H30.4847H30.4056H30.3263H30.2469H30.1673H30.0877H30.0079H29.9279H29.8479H29.7677H29.6874H29.6071H29.5265H29.4459H29.3652H29.2843H29.2034H29.1223H29.0412H28.9599H28.8785H28.7971H28.7155H28.6339H28.5521H28.4703H28.3883H28.3063H28.2242H28.142H28.0598H27.9774H27.895H27.8125H27.7299H27.6472H27.5645H27.4817H27.3988H27.3158H27.2328H27.1498H27.0666H26.9834H26.9002H26.8168H26.7335H26.65H26.5666H26.483H26.3995H26.3158H26.2322H26.1485H26.0647H25.9809H25.8971H25.8132H25.7293H25.6454H25.5614H25.4774H25.3934H25.3094H25.2253H25.1412H25.0571H24.9729H24.8888H24.8046H24.7204H24.6362H24.552H24.4678H24.3836H24.2993H24.2151H24.1309H24.0466H23.9624H23.8782H23.7939H23.7097H23.6255H23.5413H23.4571H23.373H23.2888H23.2047H23.1205H23.0364H22.9523H22.8683H22.7843H22.7003H22.6163H22.5323H22.4484H22.3645H22.2807H22.1969H22.1131H22.0294H21.9457H21.8621H21.7785H21.695H21.6115H21.5281H21.4447H21.3613H21.2781H21.1949H21.1117H21.0286H20.9456H20.8626H20.7797H20.6969H20.6141H20.5315H20.4488H20.3663H20.2839H20.2015H20.1192H20.037H19.9548H19.8728H19.7908H19.709H19.6272H19.5455H19.4639H19.3825H19.3011H19.2198H19.1386H19.0575H18.9765H18.8957H18.8149H18.7342H18.6537H18.5733H18.493H18.4128H18.3327H18.2527H18.1729H18.0932H18.0136H17.9342H17.8548H17.7756H17.6966H17.6177H17.5389H17.4602H17.3817H17.3033H17.2251H17.147H17.0691H16.9913H16.9137H16.8362H16.7589H16.6817H16.6047H16.5278H16.4511H16.3746H16.2982H16.222H16.146H16.0701H15.9944H15.9189H15.8435H15.7683H15.6933H15.6185H15.5439H15.4694H15.3952H15.3211H15.2472H15.1735H15.1H15.0267H14.9535H14.8806H14.8079H14.7354H14.663H14.5909H14.519H14.4473H14.3758H14.3045H14.2334H14.1626H14.0919H14.0215H13.9513H13.8813H13.8115H13.742H13.6727H13.6036H13.5347H13.4661H13.3977H13.3295H13.2616H13.1939H13.1265H13.0593H12.9923H12.9256H12.8592H12.793H12.727H12.6613H12.5958H12.5306H12.4657H12.401H12.3366H12.2724H12.2085H12.1449H12.0815H12.0184H11.9556H11.893H11.8308H11.7688H11.707H11.6456H11.5844H11.5236H11.463H11.4027H11.3426H11.2829H11.2235H11.1643H11.1055H11.0469H10.9887H10.9307H10.8731H10.8158H10.7587H10.702H10.6456H10.5895H10.5337H10.4782H10.423H10.3682H10.3137H10.2595H10.2056H10.152H10.0988H10.0459H9.99331H9.94107H9.88916H9.83759H9.78636H9.73546H9.68491H9.63469H9.58482C7.36157 96.4999 5.28724 94.9334 4.17035 91.6239C3.06081 88.3362 3.27488 84.1095 5.21297 80.6644L5.2134 80.6637C8.44921 74.9085 13.5178 68.6179 21.4675 64.693C27.3279 68.3467 34.2442 70.4671 41.6479 70.4671C49.0481 70.4671 55.964 68.3465 61.824 64.693C69.7739 68.6179 74.8426 74.9084 78.0807 80.6644Z" stroke="white" stroke-width="7"/>
<path d="M64.3649 32.4998C64.3649 45.0466 54.1956 55.2189 41.6479 55.2189C29.0976 55.2189 18.9268 45.0461 18.9268 32.5V26.2191C18.9268 13.6728 29.0975 3.5 41.6479 3.5C54.1956 3.5 64.3649 13.6723 64.3649 26.2189V32.4998Z" stroke="white" stroke-width="7"/>
</svg>
