<svg width="21" height="21" viewBox="0 0 21 21" fill="none" xmlns="http://www.w3.org/2000/svg">
<path d="M1.125 3.625C1.125 12.1854 8.06459 19.125 16.625 19.125C17.0112 19.125 17.3941 19.1109 17.7733 19.0831C18.2084 19.0512 18.4259 19.0353 18.624 18.9213C18.788 18.8269 18.9435 18.6595 19.0257 18.489C19.125 18.2832 19.125 18.0431 19.125 17.563V14.7457C19.125 14.3419 19.125 14.14 19.0585 13.967C18.9999 13.8141 18.9045 13.678 18.7809 13.5706C18.641 13.449 18.4512 13.38 18.0718 13.242L14.865 12.0759C14.4235 11.9154 14.2027 11.8351 13.9933 11.8487C13.8086 11.8607 13.6309 11.9238 13.4799 12.0308C13.3087 12.1521 13.1879 12.3535 12.9462 12.7564L12.125 14.125C9.4751 12.9249 7.3269 10.7739 6.125 8.125L7.49363 7.30382C7.89645 7.06213 8.09786 6.94128 8.2192 6.77006C8.3262 6.61908 8.3893 6.44137 8.4013 6.2567C8.4149 6.04727 8.3346 5.82653 8.1741 5.38505L7.00799 2.17821C6.87 1.79876 6.80101 1.60903 6.67942 1.4691C6.57201 1.34549 6.43589 1.25015 6.28302 1.19145C6.10996 1.125 5.90808 1.125 5.50432 1.125H2.68701C2.20688 1.125 1.96681 1.125 1.76098 1.22425C1.5905 1.30646 1.42314 1.46201 1.3287 1.62603C1.21468 1.82407 1.19875 2.04162 1.16689 2.47673C1.13913 2.85586 1.125 3.23878 1.125 3.625Z" stroke="#6B85A8" stroke-width="2" stroke-linecap="round" stroke-linejoin="round"/>
</svg>
