<svg width="74" height="74" viewBox="0 0 74 74" fill="none" xmlns="http://www.w3.org/2000/svg">
<path d="M45.1089 7.72448C34.8029 -2.57483 18.0357 -2.57483 7.72966 7.72448C-2.57655 18.0238 -2.57655 34.7816 7.72966 45.081C18.0357 55.3803 34.8029 55.3803 45.1089 45.081C55.415 34.7816 55.415 18.0238 45.1089 7.72448ZM41.439 41.4135C33.1446 49.7009 19.694 49.7009 11.3996 41.4119C3.10509 33.1229 3.10509 19.6811 11.3996 11.3937C19.694 3.10468 33.143 3.10468 41.4374 11.3937C49.7319 19.6827 49.7335 33.1229 41.439 41.4135Z" fill="white"/>
<path d="M14.7155 16.2643C10.4697 21.7167 10.1162 29.2188 13.6566 35.0103C13.9281 35.4565 14.5102 35.5954 14.9551 35.3257C15.3984 35.0528 15.539 34.4725 15.2675 34.0281C12.134 28.9036 12.4464 22.2433 16.2031 17.4249C16.525 17.0148 16.4508 16.4221 16.0389 16.1018C15.6289 15.7818 15.0357 15.8544 14.7155 16.2643Z" fill="white"/>
<path d="M72.078 64.7099L52.8952 46.0365C51.846 45.0146 50.1705 45.0274 49.1338 46.0616L46.0918 49.1016C45.0569 50.1358 45.0456 51.8104 46.0697 52.8574L64.754 72.0274C66.8288 74.5313 69.8943 74.6796 72.2626 72.3113C74.6339 69.9462 74.5819 66.7834 72.078 64.7099Z" fill="white"/>
</svg>
