<svg width="45" height="45" viewBox="0 0 45 45" fill="none" xmlns="http://www.w3.org/2000/svg">
<path d="M22.5 45C34.9264 45 45 34.9264 45 22.5C45 10.0736 34.9264 0 22.5 0C10.0736 0 0 10.0736 0 22.5C0 34.9264 10.0736 45 22.5 45Z" fill="url(#paint0_linear_2088_14)"/>
<path d="M33.7284 13.1927C33.9286 11.8982 32.6979 10.8764 31.5469 11.3818L8.62196 21.447C7.79655 21.8094 7.85693 23.0598 8.713 23.3323L13.4406 24.8379C14.343 25.1253 15.32 24.9766 16.108 24.4323L26.7669 17.0683C27.0883 16.8462 27.4387 17.3033 27.164 17.5863L19.4915 25.4967C18.7472 26.2641 18.8949 27.5644 19.7903 28.1258L28.3805 33.5126C29.3439 34.1167 30.5834 33.5099 30.7635 32.3455L33.7284 13.1927Z" fill="white"/>
<defs>
<linearGradient id="paint0_linear_2088_14" x1="22.5" y1="0" x2="22.5" y2="45" gradientUnits="userSpaceOnUse">
<stop stop-color="#37BBFE"/>
<stop offset="1" stop-color="#007DBB"/>
</linearGradient>
</defs>
</svg>
