<svg width="55" height="55" viewBox="0 0 55 55" fill="none" xmlns="http://www.w3.org/2000/svg">
<rect width="55" height="55" rx="10" fill="url(#paint0_linear_2020_57)"/>
<path d="M12.8892 36L8 18.0012H11.2072L14.9637 31.8252L18.9897 18L21.9794 18.0012L26.0195 31.8987L29.7929 18.0046L33 18L28.1087 35.9968L24.3913 35.993L20.4858 22.5518L16.5766 35.9965L12.8892 36Z" fill="white"/>
<path d="M47 30.8512C47 32.3253 46.4862 33.5502 45.437 34.526C44.3878 35.5018 43.1535 36 41.6316 36H34V18H41.076C42.5366 18 43.7703 18.4983 44.7784 19.4325C45.8074 20.3875 46.301 21.5709 46.301 22.9827C46.301 24.5606 45.6835 25.7647 44.4909 26.6575C46.0539 27.4879 47 28.9827 47 30.8512ZM36.9413 20.782V25.5156H41.0962C42.3925 25.5156 43.3798 24.4775 43.3798 23.1488C43.3798 21.8201 42.3925 20.782 41.0962 20.782H36.9413ZM41.6518 33.218C43.0094 33.218 44.0794 32.1176 44.0794 30.7059C44.0794 29.2941 43.0094 28.1938 41.6518 28.1938H36.9413V33.2388H41.6518V33.218Z" fill="white"/>
<defs>
<linearGradient id="paint0_linear_2020_57" x1="55" y1="6.55651e-06" x2="6.55651e-06" y2="55" gradientUnits="userSpaceOnUse">
<stop stop-color="#5C009C"/>
<stop offset="1" stop-color="#E000BD"/>
</linearGradient>
</defs>
</svg>
