<svg width="45" height="45" viewBox="0 0 45 45" fill="none" xmlns="http://www.w3.org/2000/svg">
<rect width="45" height="45" rx="22.5" fill="url(#paint0_linear_2088_11)"/>
<path d="M11.1479 34.5L12.3653 28.8661C10.8006 26.4061 10.1902 23.4615 10.6486 20.5848C11.1071 17.7081 12.6028 15.097 14.8553 13.2414C17.1077 11.3858 19.962 10.4132 22.8827 10.5061C25.8034 10.599 28.5897 11.751 30.7189 13.746C32.8481 15.7409 34.1738 18.4418 34.4473 21.3417C34.7208 24.2417 33.9233 27.1415 32.2045 29.4971C30.4856 31.8526 27.9635 33.5021 25.1114 34.1359C22.2592 34.7698 19.273 34.3445 16.7131 32.9398L11.1479 34.5Z" fill="url(#paint1_linear_2088_11)" stroke="white" stroke-width="3"/>
<path d="M26.3161 24.1474C26.0547 23.9723 25.7932 23.8847 25.5317 24.235L24.4858 25.6361C24.2243 25.8112 24.05 25.8988 23.7013 25.7237C22.3939 25.0231 20.5635 24.235 18.9946 21.6079C18.9075 21.2576 19.0818 21.0825 19.2561 20.9074L20.0406 19.6814C20.2149 19.5063 20.1277 19.3311 20.0406 19.156L18.9946 16.6165C18.7332 15.9159 18.4717 16.0035 18.2102 16.0035H17.5129C17.3386 16.0035 16.9899 16.0911 16.6413 16.4413C14.7238 18.3679 15.5082 21.0825 16.9028 22.8339C17.1643 23.1842 18.9075 26.3367 22.6554 28.0005C25.4445 29.2264 26.0547 29.0513 26.8391 28.8762C27.7979 28.7886 28.7566 28.0005 29.1924 27.2123C29.2796 26.9496 29.7154 25.8112 29.3668 25.6361" fill="white"/>
<defs>
<linearGradient id="paint0_linear_2088_11" x1="22.5" y1="0" x2="22.5" y2="45" gradientUnits="userSpaceOnUse">
<stop stop-color="#25D366"/>
<stop offset="1" stop-color="#29A71A"/>
</linearGradient>
<linearGradient id="paint1_linear_2088_11" x1="22.5" y1="3.31551e-07" x2="22.5" y2="44.5" gradientUnits="userSpaceOnUse">
<stop stop-color="#25D366"/>
<stop offset="1" stop-color="#29A71A"/>
</linearGradient>
</defs>
</svg>
