<svg width="55" height="55" viewBox="0 0 55 55" fill="none" xmlns="http://www.w3.org/2000/svg">
<rect width="55" height="55" rx="10" fill="url(#paint0_linear_2019_17)"/>
<mask id="mask0_2019_17" style="mask-type:alpha" maskUnits="userSpaceOnUse" x="0" y="0" width="55" height="55">
<rect width="55" height="55" rx="10" fill="#D9D9D9"/>
</mask>
<g mask="url(#mask0_2019_17)">
<path d="M14.117 16.0333L-10.083 47.7499L-3.66634 55.0833L14.3003 31.2499L12.467 44.2666L22.5503 47.7499L34.8337 28.1333C34.2837 31.7999 33.367 40.2333 41.4337 42.7999C54.0837 46.6499 65.0837 23.9166 70.217 12.3666L62.8837 8.5166C57.2003 20.4333 48.4003 33.6333 44.917 32.7166C41.4337 31.7999 44.5503 20.6166 46.567 13.4666V13.2833L35.3837 9.43327L22.0003 31.2499L23.8337 19.3333L14.117 16.0333Z" fill="url(#paint1_linear_2019_17)"/>
</g>
<defs>
<linearGradient id="paint0_linear_2019_17" x1="27.5" y1="0" x2="27.5" y2="55" gradientUnits="userSpaceOnUse">
<stop stop-color="#FFE04A"/>
<stop offset="1" stop-color="#FFCF0B"/>
</linearGradient>
<linearGradient id="paint1_linear_2019_17" x1="30.067" y1="8.5166" x2="30.067" y2="55.0833" gradientUnits="userSpaceOnUse">
<stop stop-color="#31322E"/>
<stop offset="1" stop-color="#040403"/>
</linearGradient>
</defs>
</svg>
